<mxfile host="app.diagrams.net" modified="2023-05-22T17:00:02.229Z" agent="Mozilla/5.0 (Windows NT 10.0; Win64; x64) AppleWebKit/537.36 (KHTML, like Gecko) Chrome/113.0.0.0 Safari/537.36" etag="sFzyhrqKEzbPCNwN7myn" version="21.3.2" type="device">
  <diagram name="Page-1" id="pNuTNV9fmgfEGE8pkxVD">
    <mxGraphModel dx="1050" dy="541" grid="1" gridSize="10" guides="1" tooltips="1" connect="1" arrows="1" fold="1" page="1" pageScale="1" pageWidth="827" pageHeight="1169" math="0" shadow="0">
      <root>
        <mxCell id="0" />
        <mxCell id="1" parent="0" />
        <mxCell id="fkuM4LcfHUh4L_Huo2jL-1" value="View" style="swimlane;fontStyle=0;childLayout=stackLayout;horizontal=1;startSize=30;horizontalStack=0;resizeParent=1;resizeParentMax=0;resizeLast=0;collapsible=1;marginBottom=0;whiteSpace=wrap;html=1;fontSize=14;" parent="1" vertex="1">
          <mxGeometry x="250" y="100" width="210" height="150" as="geometry" />
        </mxCell>
        <mxCell id="fkuM4LcfHUh4L_Huo2jL-2" value="&lt;font style=&quot;font-size: 14px;&quot;&gt;User Interface&lt;/font&gt;" style="text;strokeColor=none;fillColor=none;align=center;verticalAlign=middle;spacingLeft=4;spacingRight=4;overflow=hidden;points=[[0,0.5],[1,0.5]];portConstraint=eastwest;rotatable=0;whiteSpace=wrap;html=1;" parent="fkuM4LcfHUh4L_Huo2jL-1" vertex="1">
          <mxGeometry y="30" width="210" height="30" as="geometry" />
        </mxCell>
        <mxCell id="fkuM4LcfHUh4L_Huo2jL-3" value="&lt;span style=&quot;background-color: initial;&quot;&gt;&lt;font style=&quot;font-size: 14px;&quot;&gt;File Upload&lt;/font&gt;&lt;/span&gt;" style="text;strokeColor=none;fillColor=none;align=center;verticalAlign=middle;spacingLeft=4;spacingRight=4;overflow=hidden;points=[[0,0.5],[1,0.5]];portConstraint=eastwest;rotatable=0;whiteSpace=wrap;html=1;" parent="fkuM4LcfHUh4L_Huo2jL-1" vertex="1">
          <mxGeometry y="60" width="210" height="30" as="geometry" />
        </mxCell>
        <mxCell id="fkuM4LcfHUh4L_Huo2jL-4" value="&lt;font style=&quot;font-size: 14px;&quot;&gt;Customization Options&lt;/font&gt;" style="text;strokeColor=none;fillColor=none;align=center;verticalAlign=middle;spacingLeft=4;spacingRight=4;overflow=hidden;points=[[0,0.5],[1,0.5]];portConstraint=eastwest;rotatable=0;whiteSpace=wrap;html=1;" parent="fkuM4LcfHUh4L_Huo2jL-1" vertex="1">
          <mxGeometry y="90" width="210" height="30" as="geometry" />
        </mxCell>
        <mxCell id="fkuM4LcfHUh4L_Huo2jL-5" value="&lt;font style=&quot;font-size: 14px;&quot;&gt;Summary Display&lt;/font&gt;" style="text;strokeColor=none;fillColor=none;align=center;verticalAlign=middle;spacingLeft=4;spacingRight=4;overflow=hidden;points=[[0,0.5],[1,0.5]];portConstraint=eastwest;rotatable=0;whiteSpace=wrap;html=1;" parent="fkuM4LcfHUh4L_Huo2jL-1" vertex="1">
          <mxGeometry y="120" width="210" height="30" as="geometry" />
        </mxCell>
        <mxCell id="fkuM4LcfHUh4L_Huo2jL-6" value="Controller" style="swimlane;fontStyle=0;childLayout=stackLayout;horizontal=1;startSize=30;horizontalStack=0;resizeParent=1;resizeParentMax=0;resizeLast=0;collapsible=1;marginBottom=0;whiteSpace=wrap;html=1;fontSize=14;" parent="1" vertex="1">
          <mxGeometry x="250" y="370" width="210" height="180" as="geometry" />
        </mxCell>
        <mxCell id="fkuM4LcfHUh4L_Huo2jL-7" value="Web Server" style="text;strokeColor=none;fillColor=none;align=left;verticalAlign=middle;spacingLeft=4;spacingRight=4;overflow=hidden;points=[[0,0.5],[1,0.5]];portConstraint=eastwest;rotatable=0;whiteSpace=wrap;html=1;fontSize=14;" parent="fkuM4LcfHUh4L_Huo2jL-6" vertex="1">
          <mxGeometry y="30" width="210" height="30" as="geometry" />
        </mxCell>
        <mxCell id="fkuM4LcfHUh4L_Huo2jL-8" value="Request Processing" style="text;strokeColor=none;fillColor=none;align=left;verticalAlign=middle;spacingLeft=4;spacingRight=4;overflow=hidden;points=[[0,0.5],[1,0.5]];portConstraint=eastwest;rotatable=0;whiteSpace=wrap;html=1;fontSize=14;" parent="fkuM4LcfHUh4L_Huo2jL-6" vertex="1">
          <mxGeometry y="60" width="210" height="30" as="geometry" />
        </mxCell>
        <mxCell id="fkuM4LcfHUh4L_Huo2jL-9" value="Customization Logic" style="text;strokeColor=none;fillColor=none;align=left;verticalAlign=middle;spacingLeft=4;spacingRight=4;overflow=hidden;points=[[0,0.5],[1,0.5]];portConstraint=eastwest;rotatable=0;whiteSpace=wrap;html=1;fontSize=14;" parent="fkuM4LcfHUh4L_Huo2jL-6" vertex="1">
          <mxGeometry y="90" width="210" height="30" as="geometry" />
        </mxCell>
        <mxCell id="fkuM4LcfHUh4L_Huo2jL-10" value="Result Generation" style="text;strokeColor=none;fillColor=none;align=left;verticalAlign=middle;spacingLeft=4;spacingRight=4;overflow=hidden;points=[[0,0.5],[1,0.5]];portConstraint=eastwest;rotatable=0;whiteSpace=wrap;html=1;fontSize=14;" parent="fkuM4LcfHUh4L_Huo2jL-6" vertex="1">
          <mxGeometry y="120" width="210" height="30" as="geometry" />
        </mxCell>
        <mxCell id="fkuM4LcfHUh4L_Huo2jL-11" value="Data Flow and Application Logic" style="text;strokeColor=none;fillColor=none;align=left;verticalAlign=middle;spacingLeft=4;spacingRight=4;overflow=hidden;points=[[0,0.5],[1,0.5]];portConstraint=eastwest;rotatable=0;whiteSpace=wrap;html=1;fontSize=14;" parent="fkuM4LcfHUh4L_Huo2jL-6" vertex="1">
          <mxGeometry y="150" width="210" height="30" as="geometry" />
        </mxCell>
        <mxCell id="fkuM4LcfHUh4L_Huo2jL-12" value="Model" style="swimlane;fontStyle=0;childLayout=stackLayout;horizontal=1;startSize=30;horizontalStack=0;resizeParent=1;resizeParentMax=0;resizeLast=0;collapsible=1;marginBottom=0;whiteSpace=wrap;html=1;fontSize=14;" parent="1" vertex="1">
          <mxGeometry x="260" y="670" width="190" height="120" as="geometry" />
        </mxCell>
        <mxCell id="fkuM4LcfHUh4L_Huo2jL-26" style="rounded=0;orthogonalLoop=1;jettySize=auto;html=1;exitX=0.158;exitY=1;exitDx=0;exitDy=0;endArrow=none;endFill=0;exitPerimeter=0;" parent="fkuM4LcfHUh4L_Huo2jL-12" source="fkuM4LcfHUh4L_Huo2jL-15" edge="1">
          <mxGeometry relative="1" as="geometry">
            <mxPoint x="30" y="210" as="targetPoint" />
          </mxGeometry>
        </mxCell>
        <mxCell id="fkuM4LcfHUh4L_Huo2jL-27" value="Data Manipulation" style="edgeLabel;html=1;align=center;verticalAlign=middle;resizable=0;points=[];fontSize=14;" parent="fkuM4LcfHUh4L_Huo2jL-26" vertex="1" connectable="0">
          <mxGeometry x="-0.3213" y="-2" relative="1" as="geometry">
            <mxPoint x="1" y="58" as="offset" />
          </mxGeometry>
        </mxCell>
        <mxCell id="fkuM4LcfHUh4L_Huo2jL-13" value="Summarization Engine" style="text;strokeColor=none;fillColor=none;align=left;verticalAlign=middle;spacingLeft=4;spacingRight=4;overflow=hidden;points=[[0,0.5],[1,0.5]];portConstraint=eastwest;rotatable=0;whiteSpace=wrap;html=1;fontSize=14;" parent="fkuM4LcfHUh4L_Huo2jL-12" vertex="1">
          <mxGeometry y="30" width="190" height="30" as="geometry" />
        </mxCell>
        <mxCell id="fkuM4LcfHUh4L_Huo2jL-14" value="Document Processing" style="text;strokeColor=none;fillColor=none;align=left;verticalAlign=middle;spacingLeft=4;spacingRight=4;overflow=hidden;points=[[0,0.5],[1,0.5]];portConstraint=eastwest;rotatable=0;whiteSpace=wrap;html=1;fontSize=14;" parent="fkuM4LcfHUh4L_Huo2jL-12" vertex="1">
          <mxGeometry y="60" width="190" height="30" as="geometry" />
        </mxCell>
        <mxCell id="fkuM4LcfHUh4L_Huo2jL-28" style="rounded=0;orthogonalLoop=1;jettySize=auto;html=1;endArrow=none;endFill=0;exitX=0.844;exitY=1.047;exitDx=0;exitDy=0;exitPerimeter=0;" parent="fkuM4LcfHUh4L_Huo2jL-12" edge="1" source="fkuM4LcfHUh4L_Huo2jL-15">
          <mxGeometry relative="1" as="geometry">
            <mxPoint x="160" y="210" as="targetPoint" />
            <mxPoint x="190" y="80" as="sourcePoint" />
          </mxGeometry>
        </mxCell>
        <mxCell id="fkuM4LcfHUh4L_Huo2jL-29" value="Data Storage" style="edgeLabel;html=1;align=center;verticalAlign=middle;resizable=0;points=[];fontSize=14;" parent="fkuM4LcfHUh4L_Huo2jL-28" vertex="1" connectable="0">
          <mxGeometry x="-0.1026" relative="1" as="geometry">
            <mxPoint y="49" as="offset" />
          </mxGeometry>
        </mxCell>
        <mxCell id="fkuM4LcfHUh4L_Huo2jL-15" value="Storage" style="text;strokeColor=none;fillColor=none;align=left;verticalAlign=middle;spacingLeft=4;spacingRight=4;overflow=hidden;points=[[0,0.5],[1,0.5]];portConstraint=eastwest;rotatable=0;whiteSpace=wrap;html=1;fontSize=14;" parent="fkuM4LcfHUh4L_Huo2jL-12" vertex="1">
          <mxGeometry y="90" width="190" height="30" as="geometry" />
        </mxCell>
        <mxCell id="fkuM4LcfHUh4L_Huo2jL-16" style="rounded=0;orthogonalLoop=1;jettySize=auto;html=1;exitX=0.24;exitY=1.073;exitDx=0;exitDy=0;fontSize=14;exitPerimeter=0;" parent="1" source="fkuM4LcfHUh4L_Huo2jL-5" edge="1">
          <mxGeometry relative="1" as="geometry">
            <mxPoint x="300" y="370" as="targetPoint" />
          </mxGeometry>
        </mxCell>
        <mxCell id="fkuM4LcfHUh4L_Huo2jL-17" value="User Interaction" style="edgeLabel;html=1;align=center;verticalAlign=middle;resizable=0;points=[];fontSize=14;" parent="fkuM4LcfHUh4L_Huo2jL-16" vertex="1" connectable="0">
          <mxGeometry x="-0.14" y="-1" relative="1" as="geometry">
            <mxPoint y="7" as="offset" />
          </mxGeometry>
        </mxCell>
        <mxCell id="fkuM4LcfHUh4L_Huo2jL-18" style="rounded=0;orthogonalLoop=1;jettySize=auto;html=1;endArrow=none;endFill=0;fontSize=14;" parent="1" edge="1">
          <mxGeometry relative="1" as="geometry">
            <mxPoint x="410" y="250" as="sourcePoint" />
            <mxPoint x="409" y="370" as="targetPoint" />
          </mxGeometry>
        </mxCell>
        <mxCell id="fkuM4LcfHUh4L_Huo2jL-19" value="Data Presentation" style="edgeLabel;html=1;align=center;verticalAlign=middle;resizable=0;points=[];fontSize=14;" parent="fkuM4LcfHUh4L_Huo2jL-18" vertex="1" connectable="0">
          <mxGeometry x="-0.1755" y="1" relative="1" as="geometry">
            <mxPoint x="3" y="11" as="offset" />
          </mxGeometry>
        </mxCell>
        <mxCell id="fkuM4LcfHUh4L_Huo2jL-20" style="rounded=0;orthogonalLoop=1;jettySize=auto;html=1;exitX=0.19;exitY=1.02;exitDx=0;exitDy=0;entryX=0.166;entryY=-0.002;entryDx=0;entryDy=0;entryPerimeter=0;exitPerimeter=0;" parent="1" source="fkuM4LcfHUh4L_Huo2jL-11" target="fkuM4LcfHUh4L_Huo2jL-12" edge="1">
          <mxGeometry relative="1" as="geometry" />
        </mxCell>
        <mxCell id="fkuM4LcfHUh4L_Huo2jL-21" value="Data Processing" style="edgeLabel;html=1;align=center;verticalAlign=middle;resizable=0;points=[];fontSize=14;" parent="fkuM4LcfHUh4L_Huo2jL-20" vertex="1" connectable="0">
          <mxGeometry x="-0.2265" y="2" relative="1" as="geometry">
            <mxPoint y="13" as="offset" />
          </mxGeometry>
        </mxCell>
        <mxCell id="fkuM4LcfHUh4L_Huo2jL-22" style="rounded=0;orthogonalLoop=1;jettySize=auto;html=1;exitX=0.811;exitY=0.94;exitDx=0;exitDy=0;entryX=0.848;entryY=-0.002;entryDx=0;entryDy=0;endArrow=none;endFill=0;exitPerimeter=0;entryPerimeter=0;" parent="1" source="fkuM4LcfHUh4L_Huo2jL-11" target="fkuM4LcfHUh4L_Huo2jL-12" edge="1">
          <mxGeometry relative="1" as="geometry" />
        </mxCell>
        <mxCell id="fkuM4LcfHUh4L_Huo2jL-23" value="Communication" style="edgeLabel;html=1;align=center;verticalAlign=middle;resizable=0;points=[];fontSize=14;" parent="fkuM4LcfHUh4L_Huo2jL-22" vertex="1" connectable="0">
          <mxGeometry x="0.1719" relative="1" as="geometry">
            <mxPoint y="-9" as="offset" />
          </mxGeometry>
        </mxCell>
      </root>
    </mxGraphModel>
  </diagram>
</mxfile>
